<?xml version="1.0" encoding="UTF-8"?>
<svg id="Layer_2" data-name="Layer 2" xmlns="http://www.w3.org/2000/svg" viewBox="0 0 168.93 175.79">
  <defs>
    <style>
      .cls-1, .cls-2 {
        fill: #333;
      }

      .cls-3 {
        fill: #f5c10e;
      }

      .cls-3, .cls-4, .cls-2 {
        fill-rule: evenodd;
      }

      .cls-4 {
        fill: #fdd100;
      }
    </style>
  </defs>
  <g id="Layer_1-2" data-name="Layer 1">
    <g>
      <path class="cls-2" d="M92.64,62.59c1.72,.31,3.43,.73,5.08,1.29,5.1,1.71,10.61,5.13,11.34,10.96,.73,5.82-3.77,10.51-8.29,13.42-5.37,3.46-12.07,5.52-18.44,6.5l.02,.03c8.57,13.78,5.28,31.73-7.28,41.63-.2,4.52-1.2,10.46-6.08,14.52,.68-4.79,.48-8.36-.91-10.61-6.34,2.67-14.62,3.31-19.89,2.08-8.21-1.92-15.26-6.97-19.71-14.13-7.02-11.29-6.07-25.29,1.3-35.42-1.31,.11-2.64,.1-3.99-.03-11.94-1.19-20.65-11.84-19.45-23.78,1.19-11.94,11.84-20.65,23.78-19.45,10.44,1.05,18.42,9.33,19.45,19.38,2.84-4.65,6.99-8.79,11.24-12.01,4.84-3.67,10.79-6.88,16.78-8.09,4.77-.97,10.59-.72,13.79,3.51,2.28,3.01,2.26,6.76,1.26,10.21h0ZM4.35,35.58c.29,.77,1.42,.59,2.24,1.05,5.98,3.35,9.87,11.05,10.58,13.75l.22,.36c-.65-5.97-7.22-13.13-10.73-15.6-.94-.66-3.05-1.57-2.3,.44h0ZM.35,43.97c.44,.52,1.39-.03,2.16,.25,4.39,1.61,10.16,5.18,12.46,7.97l.55,.45c-2.06-3.69-9.64-8.31-13.35-9.58-.95-.33-2.98-.46-1.83,.9H.35Zm40.68,44.41c-8.45,5.26-13.03,14.39-12.87,23.67,3.07,.93,12.26-2.64,22.13-8.77,9.87-6.14,17.13-12.8,17.66-15.96-8.25-4.25-18.47-4.19-26.92,1.07h0Zm17.16,27.6c-11.2,6.96-21.49,11.36-25.24,11,3.64,5.31,8.86,8.94,14.63,10.68,3.87-.21,11.25-3.26,19.05-8.1,7.79-4.85,13.8-10.12,15.69-13.49,1-5.94,.05-12.24-3.1-17.85-1.34,3.52-9.84,10.8-21.03,17.76h0Zm-31.94-27.56c9.5,.95,17.97-5.98,18.92-15.48,.95-9.5-5.98-17.97-15.48-18.92-9.5-.95-17.97,5.98-18.92,15.48-.95,9.5,5.98,17.97,15.48,18.92h0Zm27.69-8.55c9.04-.42,18.04,3.05,24.46,9.8,.54-.05,1.09-.11,1.62-.18,5.98-.75,12.66-2.59,17.76-5.88,2.49-1.6,6.21-4.7,5.79-8.07-.02-.18-.06-.36-.1-.54-1.36-5.24-11.29-7.08-15.7-7.44-.38-.03-.76-.06-1.15-.08-3.1-.17-6.23-.04-9.31,.35-5.97,.75-12.66,2.59-17.76,5.88-2.01,1.29-4.82,3.56-5.61,6.16h0Zm2.23-10.58c.12-.08,.24-.16,.37-.24,5.83-3.76,13.23-5.87,20.08-6.72,3.42-.43,6.92-.57,10.37-.38,.72-1.98,1.19-4.52-.05-6.17-1.7-2.24-5.82-1.89-8.21-1.4-5.13,1.04-10.37,3.93-14.51,7.07-2.9,2.19-5.75,4.87-8.04,7.85h0Z"/>
      <path class="cls-3" d="M26.24,88.41c9.5,.95,17.97-5.98,18.92-15.48,.95-9.5-5.98-17.97-15.48-18.92-9.5-.95-17.97,5.98-18.92,15.48-.95,9.5,5.98,17.97,15.48,18.92h0Z"/>
      <path class="cls-4" d="M41.02,88.38c-8.45,5.26-13.03,14.39-12.87,23.67,3.07,.93,12.26-2.64,22.13-8.77,9.87-6.14,17.13-12.8,17.66-15.96-8.25-4.25-18.47-4.19-26.92,1.07h0Zm17.16,27.6c-11.2,6.96-21.49,11.36-25.24,11,3.64,5.31,8.86,8.94,14.63,10.68,3.87-.21,11.25-3.26,19.05-8.1,7.79-4.85,13.8-10.12,15.69-13.49,1-5.94,.05-12.24-3.1-17.85-1.34,3.52-9.84,10.8-21.03,17.76h0Z"/>
      <path class="cls-1" d="M95.71,161.97l-1.65,3.64-1.05-.47-1.54-.71-1.55-.73-1.57-.75-1.59-.78,1.77-3.59,1.56,.76,1.54,.74,1.52,.72,1.5,.69,1.05,.47h0ZM122.81,2.38l3.22-2.38,.15,.2,.46,.63,.46,.64,.46,.65,.46,.66,.46,.68,.46,.69,.47,.7,.47,.71,.47,.72,.28,.44-3.38,2.14-.27-.42-.45-.7-.45-.69-.45-.68-.45-.66-.45-.65-.45-.64-.44-.63-.44-.61-.44-.6-.15-.2h0Zm10.44,16.71l3.52-1.9,.19,.34,.47,.88,.47,.89,.47,.9,.47,.91,.47,.91,.47,.92,.47,.93,.24,.48-3.58,1.78-.23-.46-.46-.92-.46-.91-.46-.9-.46-.89-.46-.88-.46-.87-.46-.86-.19-.34h0Zm8.73,17.81l3.66-1.62,.16,.37,.45,1.03,.45,1.03,.45,1.04,.45,1.05,.44,1.05,.44,1.06,.32,.78-3.7,1.52-.32-.76-.44-1.04-.44-1.04-.44-1.03-.44-1.03-.44-1.02-.45-1.01-.16-.37h0Zm7.47,18.4l3.76-1.37,.38,1.04,.41,1.12,.4,1.12,.4,1.12,.4,1.13,.39,1.13,.32,.92-3.79,1.29-.31-.91-.39-1.12-.39-1.11-.39-1.11-.4-1.11-.4-1.1-.38-1.04h0Zm6.29,18.85l3.83-1.14,.05,.15,.34,1.15,.34,1.15,.33,1.16,.33,1.16,.32,1.16,.32,1.16,.18,.67-3.87,1.03-.17-.65-.31-1.14-.32-1.14-.32-1.14-.33-1.14-.33-1.14-.34-1.14-.05-.15h0Zm4.98,19.21l3.91-.85,.06,.29,.25,1.15,.24,1.15,.23,1.15,.23,1.14,.22,1.14,.21,1.14,.14,.75-3.94,.71-.13-.73-.21-1.12-.22-1.12-.22-1.12-.23-1.13-.24-1.13-.24-1.13-.06-.29h0Zm3.32,19.51l3.98-.45,.08,.7,.12,1.1,.11,1.09,.1,1.09,.1,1.08,.09,1.08,.08,1.07,.06,.85-3.99,.25-.05-.82-.08-1.04-.08-1.05-.09-1.06-.1-1.06-.11-1.07-.12-1.07-.08-.7h0Zm.9,19.65l4,.17v.39s-.06,.99-.06,.99l-.06,.98-.07,.97-.08,.97-.09,.96-.1,.95-.11,.94-.12,.94v.08s-3.97-.57-3.97-.57v-.03s.12-.89,.12-.89l.1-.9,.09-.91,.08-.92,.07-.92,.06-.93,.05-.94,.05-.95v-.39h.01Zm-3.23,19.07l3.77,1.32v.04s-.3,.8-.3,.8l-.3,.79-.31,.78-.33,.77-.34,.75-.35,.74-.36,.73-.38,.72-.39,.71-.4,.7-.08,.12-3.39-2.12,.03-.05,.36-.62,.35-.63,.34-.65,.33-.66,.32-.67,.31-.68,.29-.69,.28-.71,.27-.72,.26-.73v-.04h.01Zm-10.61,15.07l2.26,3.3-.35,.25-.66,.44-.67,.42-.69,.41-.7,.39-.72,.37-.73,.35-.75,.34-.76,.32-.78,.3-.77,.28-1.29-3.79,.67-.24,.68-.26,.66-.28,.65-.29,.64-.31,.62-.32,.61-.34,.59-.35,.58-.36,.57-.38,.35-.25h0Zm-17.79,5.12l.02,4h-.17s-1.01,0-1.01,0l-1.02-.03-1.04-.05-1.05-.07-1.07-.09-1.08-.11-1.1-.13-.72-.1,.56-3.96,.66,.09,1.03,.12,1.01,.1,1,.08,.98,.06,.96,.04,.95,.02h.93s.17,0,.17,0h0Zm-19.13-2.96l-1.11,3.84-.41-.12-1.29-.38-1.31-.4-1.32-.43-1.34-.45-1.36-.47-.71-.25,1.37-3.76,.67,.24,1.32,.46,1.3,.43,1.28,.41,1.26,.39,1.24,.37,.41,.12h0Z"/>
    </g>
  </g>
</svg>