<?xml version="1.0" encoding="UTF-8"?>
<svg id="Layer_2" data-name="Layer 2" xmlns="http://www.w3.org/2000/svg" viewBox="0 0 332.62 142.25">
  <defs>
    <style>
      .cls-1, .cls-2 {
        fill: #333;
      }

      .cls-3 {
        fill: #f5c10e;
      }

      .cls-3, .cls-2 {
        fill-rule: evenodd;
      }
    </style>
  </defs>
  <g id="Layer_1-2" data-name="Layer 1">
    <path class="cls-2" d="M238.69,39.67c-1.67-.18-3.35-.25-5.02-.18-5.15,.2-11.14,1.87-13.37,7.03-2.23,5.16,.64,10.68,4.01,14.57,4.01,4.63,9.62,8.32,15.21,10.93l-.03,.02c-11.58,10.37-13.39,27.76-4.5,40.23-.5,2.06-.92,4.48-.82,7.01,2.5,.4,4.95,.28,7.06,.03,11.31,10.33,28.79,10.64,40.48,.4l.03-.02c1.91,5.87,4.9,11.89,9.01,16.42,3.46,3.82,8.59,7.34,13.98,5.74,5.4-1.6,7.78-7.34,8.6-12.43,.27-1.65,.4-3.33,.43-5,3.42,.41,6.96-.16,9.45-2.78,3.5-3.68,2.83-9.22,1.17-13.58-2.08-5.47-6.04-10.59-10.26-14.6-3.71-3.52-8.27-6.8-13.1-8.76,9.34-2.54,15.93-11.37,15.29-21.4-.3-4.72-2.16-8.98-5.03-12.3-2.95-3.26-6.95-5.62-11.6-6.49-9.88-1.85-19.45,3.63-23.09,12.59-1.36-5.03-4.06-9.96-7.11-14.07-3.47-4.67-8.07-9.23-13.25-11.95-4.13-2.17-9.54-3.51-13.62-.48-2.91,2.16-3.89,5.61-3.9,9.05h0Zm93.41,9.84c-.55,.36-1.27-.4-2.06-.35-4.47,.3-10.74,2.03-13.6,3.98l-.63,.27c2.88-2.84,11.1-5.05,14.85-5.22,.96-.04,2.87,.38,1.44,1.32h0Zm-17.43-19.68c-.42,.5,.24,1.31,.1,2.08-.84,4.4-3.31,10.41-5.6,13.02l-.34,.59c3.17-2.52,6.36-10.41,6.98-14.11,.16-.95-.03-2.89-1.14-1.59h0Zm-69.16,79.39c-.3-.33-.61-.66-.91-1-5.86-6.55-9.97-13.01-10.8-16.63,.68-5.73,3.24-11.26,7.65-15.58,.28,3.6,6.14,12.58,14.56,21.99,.32,.36,.64,.71,.96,1.06,.31,.36,.62,.72,.94,1.08,8.32,9.5,16.53,16.4,20.07,17.12-4.81,3.85-10.61,5.73-16.39,5.71-3.49-1.27-9.4-6.12-15.2-12.73-.3-.34-.59-.68-.88-1.02h0Zm22.19-19.65c-.34-.37-.68-.74-1.02-1.12-7.43-8.3-12.31-16.37-11.95-19.42,8.73-1.69,18.1,1.11,24.46,8.22,.36,.4,.7,.81,1.03,1.22,.37,.38,.74,.77,1.09,1.17,6.28,7.17,7.94,16.82,5.2,25.28-3.07,0-10.5-5.83-17.84-14.21-.33-.38-.66-.76-.99-1.14h0Zm15.58-13.79c-3.16-3.68-4.69-8.7-3.73-13.84,1.68-8.99,10.33-14.91,19.32-13.24,3.68,.69,6.85,2.55,9.2,5.12,2.27,2.64,3.74,6.01,3.97,9.75,.58,9.12-6.35,16.99-15.47,17.57-5.21,.33-10.02-1.79-13.29-5.37h0Zm8.1,14.74c1.8,8.48-.08,17.52-5.46,24.64,.13,.51,.27,1.01,.42,1.5,1.64,5.53,4.42,11.56,8.32,15.87,1.9,2.1,5.41,5.14,8.53,4.21,.17-.05,.33-.11,.49-.18,4.74-2.1,4.94-11.78,4.59-16-.03-.37-.06-.73-.1-1.1-.32-2.96-.93-5.9-1.78-8.75-1.64-5.53-4.42-11.56-8.32-15.87-1.54-1.7-4.12-4-6.69-4.34h0Zm10.35,.46c.1,.1,.19,.21,.28,.31,4.46,4.93,7.61,11.6,9.48,17.93,.94,3.17,1.62,6.45,1.97,9.74,1.99,.37,4.46,.42,5.82-1.01,1.86-1.95,.88-5.8,.05-7.98-1.78-4.69-5.33-9.19-8.94-12.62-2.52-2.4-5.5-4.68-8.67-6.37h0Zm-32.1-25.03c-8.2-2.81-17.4-2.04-25.12,2.44-.49-.19-.97-.39-1.44-.6-5.29-2.29-10.94-5.78-14.75-10.18-1.85-2.14-4.45-5.99-3.15-8.97,.07-.16,.15-.32,.24-.47,2.66-4.45,12.29-3.48,16.43-2.62,.36,.07,.72,.15,1.08,.24,2.9,.67,5.74,1.64,8.47,2.82,5.29,2.29,10.94,5.78,14.75,10.18,1.5,1.73,3.47,4.57,3.5,7.17h0Zm.79-10.33c-.09-.11-.18-.21-.27-.32-4.35-5.03-10.59-8.95-16.66-11.58-3.03-1.31-6.21-2.39-9.43-3.14-.13-2.02,.12-4.48,1.71-5.66,2.16-1.61,5.86-.17,7.93,.92,4.44,2.34,8.48,6.4,11.44,10.4,2.07,2.79,3.98,6.03,5.28,9.38h0Z"/>
    <path class="cls-3" d="M279.22,77.26c.36,.4,.7,.81,1.03,1.22,.37,.38,.74,.77,1.09,1.17,6.28,7.17,7.94,16.82,5.2,25.28-3.07,0-10.5-5.83-17.84-14.21-.33-.38-.66-.76-.99-1.14-.34-.37-.68-.74-1.02-1.12-7.43-8.3-12.31-16.37-11.95-19.42,8.73-1.69,18.1,1.11,24.46,8.22h0Zm4.07-1.47c-3.16-3.68-4.69-8.7-3.73-13.84,1.68-8.99,10.33-14.91,19.32-13.24,3.68,.69,6.85,2.55,9.2,5.12,2.27,2.64,3.74,6.01,3.97,9.75,.58,9.12-6.35,16.99-15.47,17.57-5.21,.33-10.02-1.79-13.29-5.37h0Zm-25.37,24.38c-.32-.36-.63-.72-.94-1.08-.32-.35-.64-.7-.96-1.06-8.42-9.41-14.28-18.39-14.56-21.99-4.4,4.31-6.97,9.84-7.65,15.58,.84,3.61,4.94,10.08,10.8,16.63,.3,.34,.61,.67,.91,1,.29,.34,.58,.68,.88,1.02,5.79,6.61,11.71,11.47,15.2,12.73,5.77,.02,11.57-1.86,16.39-5.71-3.54-.72-11.74-7.62-20.07-17.12h0Z"/>
    <path class="cls-1" d="M203.7,128.78l.11-4h.09s.65,.01,.65,.01h.65s.65-.03,.65-.03l.65-.04,.65-.06,.66-.08,.66-.1,.66-.12,.67-.14,.67-.16,.67-.18,1.07,3.86-.77,.2-.77,.18-.77,.16-.77,.14-.77,.12-.77,.09-.76,.07-.76,.05-.76,.03h-.76s-.75,0-.75,0h-.09ZM2.34,24.49l-2.34-3.24,.94-.69,1.4-1,1.39-.97,1.38-.94,1.38-.92,.17-.11,2.16,3.37-.13,.09-1.34,.89-1.35,.92-1.35,.95-1.36,.97-.94,.69h0ZM18.98,13.93l-1.87-3.54,.12-.06,1.31-.68,1.3-.66,1.3-.63,1.29-.61,1.28-.58,.74-.32,1.58,3.67-.68,.3-1.23,.56-1.24,.59-1.25,.61-1.26,.64-1.27,.66-.12,.06h0Zm18.08-7.39l-1.07-3.85,.22-.06,1.21-.33,1.21-.3,1.2-.28,1.2-.26,1.19-.24,1.18-.22,.62-.1,.62,3.95-.55,.09-1.12,.2-1.12,.23-1.13,.25-1.14,.27-1.15,.29-1.15,.31-.22,.06h0Zm19.15-2.54l.14-4,.77,.02,1.1,.05,1.1,.07,1.09,.09,1.09,.11,1.08,.12,1.07,.14,.9,.14-.63,3.95-.83-.13-1.01-.13-1.01-.12-1.02-.1-1.02-.08-1.03-.06-1.03-.05-.77-.02h0Zm18.94,3.58l1.39-3.75,.54,.2,.99,.38,.99,.39,.98,.41,.97,.42,.97,.44,.96,.45,.96,.46,.2,.1-1.82,3.56-.15-.07-.91-.44-.91-.43-.92-.41-.92-.4-.93-.38-.93-.37-.93-.36-.54-.2h0Zm17.21,9.04l2.29-3.28,.34,.23,.89,.63,.89,.64,.88,.65,.88,.66,.87,.67,.87,.68,.86,.69,.06,.04-2.55,3.08-.03-.02-.83-.67-.84-.66-.84-.65-.84-.64-.85-.62-.85-.61-.85-.6-.34-.23h0Zm15.08,12.59l2.79-2.86,.07,.07,.81,.8,.81,.81,.8,.81,.8,.82,.79,.83,.79,.83,.78,.83-2.93,2.73-.76-.81-.77-.82-.78-.81-.78-.8-.78-.79-.79-.78-.79-.78-.07-.07h0Zm13.37,14.58l3.08-2.56,.44,.53,.75,.9,.74,.91,.74,.91,.74,.91,.74,.92,.73,.92,.2,.25-3.14,2.47-.19-.24-.72-.91-.73-.91-.73-.9-.73-.9-.73-.89-.74-.89-.44-.53h0Zm12.27,15.65l3.21-2.39,.35,.48,.7,.95,.7,.95,.7,.95,.69,.95,.69,.95,.69,.95,.22,.31-3.24,2.35-.22-.3-.69-.94-.69-.94-.69-.94-.69-.94-.69-.94-.7-.94-.35-.48h0Zm11.73,16.16l3.25-2.33,.22,.31,.67,.93,.67,.93,.67,.93,.66,.92,.66,.92,.66,.92,.45,.63-3.24,2.34-.46-.63-.66-.92-.66-.92-.66-.93-.67-.93-.67-.93-.67-.93-.22-.31h0Zm11.78,16.22l3.2-2.4,.31,.41,.65,.86,.64,.85,.64,.85,.64,.84,.64,.83,.64,.83,.64,.82,.03,.03-3.13,2.48-.04-.05-.65-.83-.65-.84-.65-.84-.65-.85-.65-.85-.65-.86-.65-.87-.31-.41h0Zm12.64,15.71l2.99-2.66,.02,.02,.63,.71,.63,.7,.63,.69,.63,.68,.63,.67,.63,.66,.63,.65,.63,.64,.31,.31-2.8,2.86-.34-.33-.66-.66-.66-.67-.65-.68-.65-.69-.65-.7-.65-.71-.65-.72-.65-.73-.02-.02h0Zm14.95,13.91l2.3-3.28,.3,.22,.63,.44,.63,.42,.63,.41,.63,.39,.63,.38,.63,.36,.63,.35,.63,.33,.63,.32,.59,.28-1.7,3.62-.66-.32-.7-.35-.7-.37-.69-.38-.69-.4-.69-.41-.69-.43-.68-.44-.68-.46-.68-.47-.3-.22h0Z"/>
  </g>
</svg>