<?xml version="1.0" encoding="UTF-8"?>
<svg id="Layer_2" data-name="Layer 2" xmlns="http://www.w3.org/2000/svg" viewBox="0 0 261.33 209.48">
  <defs>
    <style>
      .cls-1, .cls-2 {
        fill: #333;
      }

      .cls-3 {
        fill: #f5c10e;
      }

      .cls-3, .cls-4, .cls-2 {
        fill-rule: evenodd;
      }

      .cls-4 {
        fill: #fdd100;
      }
    </style>
  </defs>
  <g id="Layer_1-2" data-name="Layer 1">
    <g>
      <path class="cls-2" d="M86.19,7.14c-1.5-.86-3.06-1.62-4.66-2.25-4.94-1.94-11.28-2.85-15.52,1.09-4.24,3.94-3.82,10.33-2.25,15.4,1.86,6.02,5.62,11.83,9.82,16.61h-.04c-15.21,4.99-24.12,20.64-20.91,36.09-2.71,3.54-5.73,8.67-4.61,14.83,2.52-4.06,4.94-6.62,7.41-7.44,3.1,6.04,8.95,11.78,13.71,14.19,7.42,3.76,15.96,4.41,23.86,1.82,12.46-4.08,20.63-15.26,21.48-27.59,.92,.91,1.93,1.75,3.04,2.51,9.78,6.67,23.12,4.15,29.79-5.63,6.67-9.78,4.15-23.12-5.63-29.79-8.56-5.84-19.84-4.63-26.99,2.31,.8-5.31,.29-11.07-.88-16.21-1.33-5.84-3.79-12.04-7.55-16.76-2.99-3.76-7.55-7.26-12.65-6.09-3.63,.83-5.99,3.67-7.43,6.92h0Zm81.57,44.47c-.67,.11-1.03-.9-1.79-1.18-4.34-1.57-10.97-2.54-14.48-1.88h-.7c3.9-1.49,12.56-.17,16.16,1.22,.93,.36,2.54,1.55,.81,1.84h0Zm2.29-8.88c-.71,.4-1.45-.46-2.36-.63-6.65-1.26-14.47,2.09-16.72,3.69l-.39,.14c4.27-4.1,13.79-5.34,18.01-4.98,1.13,.1,3.31,.75,1.46,1.79h0Zm-61.21,16.64c3.06,9.33,.72,19.14-5.29,26.05-2.91-1.25-7.59-9.77-11.16-20.67-3.57-10.9-4.83-20.54-3.22-23.27,8.93,2.02,16.61,8.55,19.67,17.88h0Zm-30.47,9.98c4.05,12.36,9.03,22.22,12.1,24.32-6.11,1.7-12.37,1.14-17.83-1.21-2.79-2.61-6.44-9.6-9.26-18.2-2.82-8.61-4.01-16.4-3.3-20.15,3.01-5.13,7.72-9.28,13.66-11.52-1.22,3.51,.58,14.4,4.63,26.77h0Zm41.63-.57c-7.78-5.31-9.79-15.92-4.48-23.7,5.31-7.78,15.92-9.79,23.7-4.48,7.78,5.31,9.79,15.92,4.48,23.7-5.31,7.78-15.92,9.79-23.7,4.48h0Zm-15.5-24.02c-6.57-6.04-15.57-9.14-24.7-8.11-.38-.39-.75-.77-1.11-1.16-4.04-4.36-7.92-9.99-9.69-15.71-.86-2.79-1.71-7.49,.74-9.77,.13-.12,.27-.24,.42-.34,4.35-3.1,13.03,1.81,16.58,4.33,.31,.22,.61,.44,.92,.67,2.45,1.84,4.74,3.92,6.82,6.17,4.04,4.36,7.92,9.99,9.69,15.71,.7,2.25,1.38,5.75,.33,8.21h0Zm5.03-9.41c-.04-.14-.08-.28-.12-.41-2.02-6.54-6.28-12.83-10.91-17.82-2.32-2.5-4.86-4.82-7.59-6.86,.71-1.95,1.97-4.18,3.95-4.63,2.71-.62,5.6,2.27,7.09,4.15,3.22,4.04,5.34,9.55,6.48,14.55,.8,3.49,1.26,7.33,1.1,11.03h0Z"/>
      <path class="cls-4" d="M120,68.78c-7.78-5.31-9.79-15.92-4.48-23.7,5.31-7.78,15.92-9.79,23.7-4.48,7.78,5.31,9.79,15.92,4.48,23.7-5.31,7.78-15.92,9.79-23.7,4.48h0Z"/>
      <path class="cls-3" d="M108.85,59.37c3.06,9.33,.72,19.14-5.29,26.05-2.91-1.25-7.59-9.77-11.16-20.67-3.57-10.9-4.83-20.54-3.22-23.27,8.93,2.02,16.61,8.55,19.67,17.88h0Zm-30.47,9.98c4.05,12.36,9.03,22.22,12.1,24.32-6.11,1.7-12.37,1.14-17.83-1.21-2.79-2.61-6.44-9.6-9.26-18.2-2.82-8.61-4.01-16.4-3.3-20.15,3.01-5.13,7.72-9.28,13.66-11.52-1.22,3.51,.58,14.4,4.63,26.77h0Z"/>
      <path class="cls-1" d="M30.86,108.9l-3.12-2.5,.08-.1,.97-1.2,.99-1.21,1.01-1.22,1.02-1.23,1.04-1.25,3.06,2.58-1.03,1.23-1.01,1.22-.99,1.21-.97,1.2-.96,1.19-.08,.1h0Zm230.48,97.1l-1.96,3.49-.16-.09-.62-.35-.62-.34-.62-.34-.62-.34-.62-.34-.62-.33-.62-.33-.62-.33-.62-.32-.62-.32-.61-.32-.03-.02,1.83-3.56,.04,.02,.63,.33,.63,.33,.63,.33,.63,.33,.63,.34,.63,.34,.63,.34,.63,.34,.63,.35,.63,.35,.63,.35,.16,.09h0Zm-18-9.1l-1.64,3.65-.26-.12-.61-.27-.61-.27-.61-.27-.61-.26-.61-.26-.6-.26-.6-.26-.6-.25-.6-.25-.6-.25-.6-.25-.37-.15,1.5-3.71,.38,.15,.61,.25,.61,.25,.62,.26,.62,.26,.62,.26,.62,.26,.62,.27,.62,.27,.62,.27,.62,.27,.62,.28,.26,.12h0Zm-18.78-7.4l-1.28,3.79-.45-.15-.59-.2-.59-.2-.59-.19-.59-.19-.59-.19-.59-.19-.59-.19-.59-.18-.59-.18-.59-.18-.59-.18-.59-.18h-.02s1.13-3.84,1.13-3.84h.03s.6,.19,.6,.19l.6,.18,.6,.18,.6,.18,.6,.19,.6,.19,.6,.19,.6,.19,.6,.2,.6,.2,.6,.2,.6,.2,.45,.15h0Zm-19.41-5.54l-.9,3.9-.1-.02-.57-.13-.57-.13-.57-.13-.57-.13-.57-.12-.57-.12-.57-.12-.57-.12-.57-.12-.57-.12-.57-.11-.57-.11-.57-.11-.23-.04,.74-3.93,.24,.05,.58,.11,.58,.11,.58,.12,.58,.12,.58,.12,.58,.12,.58,.12,.58,.12,.58,.13,.58,.13,.58,.13,.59,.13,.59,.13,.1,.02h0Zm-19.88-3.58l-.5,3.97-.33-.04-.55-.07-.55-.07-.55-.07-.55-.06-.55-.06-.55-.06-.55-.06-.55-.06-.55-.06-.54-.05-.54-.05-.54-.05-.54-.05-.44-.04,.35-3.98,.46,.04,.55,.05,.55,.05,.55,.05,.55,.06,.56,.06,.56,.06,.56,.06,.56,.06,.56,.06,.56,.07,.56,.07,.56,.07,.56,.07,.33,.04h0Zm-20.13-1.57l-.11,4h-.47s-.52-.03-.52-.03h-.52s-.52-.02-.52-.02h-.52s-.52-.02-.52-.02h-.52s-.52-.01-.52-.01h-.52s-.52,0-.52,0h-.51s-.51,0-.51,0h-.51s-.51,0-.51,0h-.51s-.23,0-.23,0l-.05-4h.24s.52,0,.52,0h.52s.52,0,.52,0h.52s.52,0,.52,0h.53s.53,0,.53,0h.53s.53,.01,.53,.01h.53s.53,.02,.53,.02h.53s.53,.02,.53,.02h.53s.47,.03,.47,.03h0Zm-20.18,.39l.27,3.99-.37,.02-.49,.03-.49,.03-.48,.04-.48,.04-.48,.04-.48,.04-.48,.04-.48,.04-.48,.04-.48,.04-.48,.04-.48,.04-.48,.05-.47,.05-.47,.05-.32,.03-.42-3.98,.33-.03,.48-.05,.48-.05,.48-.05,.48-.05,.49-.04,.49-.04,.49-.04,.49-.04,.49-.04,.49-.04,.49-.04,.49-.04,.49-.04,.49-.04,.5-.03,.37-.02h0Zm-20.04,2.25l.63,3.95-.27,.04-.44,.07-.44,.07-.44,.07-.44,.07-.44,.07-.44,.07-.44,.08-.44,.08-.7,.12-.7,.12-.71,.12-.71,.12-.72,.12-.53,.09-.66-3.94,.53-.09,.71-.12,.71-.12,.71-.12,.7-.12,.69-.12,.44-.08,.45-.08,.45-.08,.45-.07,.45-.07,.45-.07,.45-.07,.45-.07,.27-.04h0Zm-19.72,3.21l.58,3.96-.47,.07-.79,.12-.8,.12-.8,.11-.8,.11-.8,.11-.81,.11-.81,.11-.81,.11-.82,.11-.25,.03-.52-3.97,.24-.03,.81-.11,.81-.11,.8-.11,.8-.11,.8-.11,.8-.11,.79-.11,.79-.11,.79-.12,.47-.07h0Zm-19.75,2.52l.41,3.98-.25,.03-.84,.09-.84,.08-.84,.08-.85,.08-.85,.08-.85,.08-.85,.08-.85,.07-.85,.07h-.15s-.32-3.97-.32-3.97h.14s.84-.08,.84-.08l.84-.07,.84-.07,.84-.08,.84-.08,.84-.08,.84-.08,.83-.08,.83-.09,.25-.03h0Zm-19.81,1.48l.16,4-.47,.02-.84,.03-.84,.03-.84,.03-.84,.02-.83,.02-.83,.02h-.83s-.83,.02-.83,.02h-.83s-.1,0-.1,0v-4s.07,0,.07,0h.81s.81-.02,.81-.02h.82s.82-.03,.82-.03l.82-.02,.82-.02,.82-.03,.82-.03,.83-.03,.47-.02h0Zm-19.78-.11l-.27,3.99-.66-.04-.78-.05-.78-.06-.77-.06-.77-.07-.77-.07-.76-.07-.76-.08-.75-.08-.75-.09-.54-.07,.5-3.97,.52,.06,.72,.08,.73,.08,.73,.08,.74,.07,.74,.07,.75,.06,.75,.06,.75,.06,.76,.05,.66,.04h0Zm-19.36-2.9l-1.04,3.86-.07-.02-.65-.18-.65-.19-.64-.19-.64-.2-.63-.2-.62-.21-.62-.21-.61-.22-.6-.23-.6-.23-.59-.24-.58-.24-.34-.15,1.61-3.66,.29,.13,.53,.22,.54,.22,.55,.21,.56,.21,.57,.2,.57,.2,.58,.19,.59,.19,.59,.18,.6,.18,.61,.17,.61,.17,.07,.02h0Zm-16.63-8.57l-2.89,2.77-.33-.34-.39-.41-.38-.42-.37-.43-.36-.44-.35-.44-.34-.45-.32-.46-.31-.47-.3-.48-.29-.48-.28-.49-.27-.5-.26-.51-.24-.51-.14-.31,3.67-1.59,.1,.22,.2,.43,.21,.42,.22,.41,.23,.41,.24,.4,.25,.39,.26,.39,.27,.38,.28,.38,.29,.37,.3,.36,.31,.36,.32,.35,.33,.35,.33,.34h0Zm-5.88-16.75l-3.99-.27v-.23s.07-.68,.07-.68l.07-.69,.08-.7,.09-.71,.11-.71,.12-.72,.14-.73,.15-.74,.16-.74,.18-.75,.19-.76,.03-.11,3.86,1.07v.05s-.19,.7-.19,.7l-.16,.69-.15,.68-.14,.67-.12,.66-.11,.65-.1,.64-.08,.64-.07,.63-.06,.62-.05,.61v.23h-.01Zm5.29-18.4l-3.61-1.71,.32-.69,.43-.89,.44-.9,.46-.91,.48-.92,.49-.93,.51-.94,.52-.95,.07-.12,3.48,1.98-.05,.09-.51,.91-.49,.91-.47,.9-.46,.89-.44,.88-.43,.86-.41,.86-.32,.69h0Zm9.8-17.06l-3.32-2.24,.38-.56,.72-1.06,.74-1.07,.76-1.08,.77-1.09,.79-1.1,.48-.66,3.23,2.36-.46,.64-.78,1.08-.76,1.07-.74,1.06-.72,1.05-.71,1.04-.38,.56h0Z"/>
    </g>
  </g>
</svg>