<svg xmlns="http://www.w3.org/2000/svg" width="45.673" height="30.83" viewBox="0 0 45.673 30.83">
    <path id="Icon_zocial-email" data-name="Icon zocial-email" d="M.072,32.167V6.8q0-.044.132-.837L15.135,18.734.248,33.048a3.733,3.733,0,0,1-.176-.881ZM2.054,4.2A1.9,1.9,0,0,1,2.8,4.068H43.014a2.494,2.494,0,0,1,.793.132L28.832,17.017,26.85,18.6l-3.92,3.215L19.01,18.6l-1.982-1.586ZM2.1,34.766l15.019-14.4,5.814,4.713,5.814-4.713,15.019,14.4a2.115,2.115,0,0,1-.749.132H2.8a2,2,0,0,1-.7-.132ZM30.726,18.734,45.612,5.962a2.629,2.629,0,0,1,.132.837V32.167a3.376,3.376,0,0,1-.132.881Z" transform="translate(-0.072 -4.068)" fill="#343434"/>
</svg>
