<svg xmlns="http://www.w3.org/2000/svg" width="62" height="62" viewBox="0 0 62 62">
  <path id="Icon_awesome-phone" data-name="Icon awesome-phone" d="M59.747,2.979,47.153.073a2.925,2.925,0,0,0-3.33,1.683L38.011,15.319a2.9,2.9,0,0,0,.836,3.391l7.338,6.006A44.878,44.878,0,0,1,24.727,46.173l-6.006-7.338A2.9,2.9,0,0,0,15.331,38L1.768,43.811a2.941,2.941,0,0,0-1.7,3.342L2.979,59.747A2.905,2.905,0,0,0,5.813,62,56.18,56.18,0,0,0,62,5.813,2.9,2.9,0,0,0,59.747,2.979Z" transform="translate(0.001 0.001)" fill="#343434"/>
</svg>
